<?xml version="1.0" ?><svg data-name="Layer 1" id="Layer_1" viewBox="0 0 1000 1079.99" xmlns="http://www.w3.org/2000/svg" xmlns:xlink="http://www.w3.org/1999/xlink"><defs><style>.cls-1{fill:none;}.cls-2{clip-path:url(#clip-path);}.cls-3{fill:#c99666;}.cls-4{fill:#b62025;}.cls-5{fill:#217139;}.cls-6{fill:#f3e9e0;}.cls-7{fill:#f2d6c7;}.cls-8{fill:#f6d8d4;}.cls-9{fill:#f4e2e0;}.cls-10{fill:#8f2e26;}.cls-11{fill:#fff;}.cls-12{fill:#1c9245;}.cls-13{fill:#18562b;}</style><clipPath id="clip-path" transform="translate(0 0)"><rect class="cls-1" height="1000" width="1000"/></clipPath></defs><title/><g class="cls-2"><rect class="cls-3" height="1000" width="1000"/><ellipse class="cls-4" cx="492.72" cy="364.86" rx="315.26" ry="298.07"/><path class="cls-5" d="M745.34,911.62c0,47-109.84,85-245.34,85s-245.34-38.07-245.34-85c0-15.67,12.23-30.36,33.57-43,42.59-25.18,121.49-42.09,211.77-42.09s169.18,16.91,211.77,42.09C733.11,881.26,745.34,896,745.34,911.62Z" transform="translate(0 0)"/><rect class="cls-5" height="178.65" rx="22.05" width="490.67" x="254.66" y="894.75"/><rect class="cls-6" height="89.01" width="124.9" x="437.55" y="765.56"/><path class="cls-7" d="M562.45,765.56v26.6c-12.81,3.15-26.1,6.29-39.86,9.51H477.41c-13.76-3.22-27.05-6.36-39.86-9.51v-26.6Z" transform="translate(0 0)"/><path class="cls-6" d="M760.62,547.25a58.67,58.67,0,0,0-.62,8.59c0,17.45,7.48,32.36,18,38.33-9.16,137.41-113.37,160.2-278.2,198.54a1.73,1.73,0,0,1-.32,0,1.63,1.63,0,0,1-.31,0c-164.64-38.29-268.79-61.07-278.16-198.05,11-5.62,18.95-20.88,18.95-38.82s-7.95-33.27-19-38.86q.15-5.07.36-10.22c2.36-57.69,10.36-122.35,37.46-165.46,43.82-69.73,114.7-115.42,195.62-131.62a336.32,336.32,0,0,1,44.79-5.88l.31,0,.32,0A329.58,329.58,0,0,1,593,223.34c60.47,22.31,112.38,62.54,147.2,118,26.92,42.83,35,106.92,37.42,164.32v0l.09,2.22q.19,4.84.33,9.62h0a26.19,26.19,0,0,0-5.58,4.25C766.52,527.58,762.17,536.66,760.62,547.25Z" transform="translate(0 0)"/><path class="cls-6" d="M768.51,273.19Q725.48,261,681.39,253c-.81-12.76-1.95-25.46-3.2-38L220.71,319.06c.11-1.81.26-3.63.43-5.43,10.79-112.24,131.2-200.71,278.14-200.71a358.2,358.2,0,0,1,52.82,3.89,341.21,341.21,0,0,1,36.63,7.52,315.38,315.38,0,0,1,65.15,25q2.32,1.2,4.6,2.45a272.37,272.37,0,0,1,45.24,30.6C734,207.75,756.55,238.77,768.51,273.19Z" transform="translate(0 0)"/><path class="cls-6" d="M778.2,330.08V502.47a9.27,9.27,0,0,1-.54,3.15v0c-1.78,5.23-7.91,9.08-15.2,9.08H236.09c-6.75,0-12.52-3.31-14.75-8a9.89,9.89,0,0,1-1-4.29V330.08c0-3.69.12-7.37.36-11L678.19,215c1.25,12.51,2.39,25.21,3.2,38q44,8,87.12,20.22a173.49,173.49,0,0,1,8.89,40.44Q778.2,321.77,778.2,330.08Z" transform="translate(0 0)"/><path class="cls-8" d="M778.2,490.61v5.28l-1,.08q-3.48.25-7,.34A43.36,43.36,0,0,1,778.2,490.61Z" transform="translate(0 0)"/><line class="cls-1" x1="677.78" x2="677.78" y1="1079.99" y2="1066.81"/><ellipse class="cls-7" cx="500" cy="670.64" rx="25.68" ry="11.73"/><path class="cls-5" d="M577.1,847a17.49,17.49,0,0,1-3.49,5l-38.5,38.5a147.49,147.49,0,0,1-70.22,0L426.39,852a17.49,17.49,0,0,1-3.49-5c6.88-18.59,38.78-32.65,77.1-32.65S570.22,828.44,577.1,847Z" transform="translate(0 0)"/><path class="cls-9" d="M472.2,778.51c3.22,0,3.23-5,0-5s-3.22,5,0,5Z" transform="translate(0 0)"/><path class="cls-4" d="M786,263H214.05C250.47,152.43,364.71,71.69,500,71.69a333.25,333.25,0,0,1,56.45,4.8,324.38,324.38,0,0,1,39.15,9.23,311.37,311.37,0,0,1,69.63,30.74c1.66,1,3.3,2,4.92,3a292.59,292.59,0,0,1,48.35,37.63C749.4,186.87,772.77,223,786,263Z" transform="translate(0 0)"/><ellipse class="cls-6" cx="204.19" cy="555.84" rx="48.07" ry="69.8"/><path class="cls-7" d="M221.05,594.66a20.52,20.52,0,0,1-9.36,2.3c-15.64,0-28.32-18.41-28.32-41.12s12.68-41.12,28.32-41.12A20.61,20.61,0,0,1,221,517c-.63,20.47-.63,39.82-.63,56.69Q220.35,584.59,221.05,594.66Z" transform="translate(0 0)"/><ellipse class="cls-6" cx="795.81" cy="555.84" rx="48.07" ry="69.8"/><path class="cls-7" d="M816.63,555.84c0,22.71-12.68,41.12-28.32,41.12A20.76,20.76,0,0,1,778,594.17q.66-9.85.66-20.5c0-16,0-34.12-.53-53.36,0-.94,0-1.88-.09-2.82h0a20.82,20.82,0,0,1,10.23-2.76C804,514.72,816.63,533.13,816.63,555.84Z" transform="translate(0 0)"/><path class="cls-10" d="M349,479c-49.64,0-90.53,31.28-95.81,71.5C258.47,590.69,299.36,622,349,622s90.53-31.29,95.82-71.5C439.53,510.26,398.65,479,349,479Zm0,134.69a100.31,100.31,0,0,1-28.07-3.95c-30.42-8.85-53-31.67-56.61-59.24,3.63-27.57,26.19-50.39,56.61-59.24A100.31,100.31,0,0,1,349,487.29c43.87,0,80,27.65,84.68,63.19C429,586,392.87,613.67,349,613.67Z" transform="translate(0 0)"/><path class="cls-11" d="M433.68,550.48C429,586,392.87,613.67,349,613.67a100.31,100.31,0,0,1-28.07-3.95c-30.42-8.85-53-31.67-56.61-59.24,3.63-27.57,26.19-50.39,56.61-59.24A100.31,100.31,0,0,1,349,487.29C392.87,487.29,429,514.94,433.68,550.48Z" transform="translate(0 0)"/><path class="cls-12" d="M433.68,550.48C429,586,392.87,613.67,349,613.67a100.31,100.31,0,0,1-28.07-3.95C300.1,596.6,286.51,575,286.51,550.48s13.59-46.13,34.42-59.24A100.31,100.31,0,0,1,349,487.29C392.87,487.29,429,514.94,433.68,550.48Z" transform="translate(0 0)"/><circle class="cls-11" cx="332.41" cy="538.1" r="27.69"/><path class="cls-10" d="M254.36,540c-.29.14-1.59,1-.45.23a5.87,5.87,0,0,1-1.17.44,23.23,23.23,0,0,1-2.59.75l-1.05.22-.71.12c-.56.09-.48.08.26,0a7.81,7.81,0,0,1-2.51.18c-.84,0-1.68,0-2.52-.07l-.71-.06c-.57-.07-.48-.05.26,0a5.56,5.56,0,0,1-1.07-.18,25.68,25.68,0,0,1-5.15-1.55,5,5,0,0,0-3.85.5,5,5,0,0,0-1.8,6.84,6,6,0,0,0,3,2.3,30.87,30.87,0,0,0,25.12-1.11,5,5,0,0,0,1.79-6.84,5.13,5.13,0,0,0-6.84-1.79Z" transform="translate(0 0)"/><path class="cls-10" d="M266.08,517.39a24.55,24.55,0,0,1-2.67.61l-.68.11c.77-.1.87-.11.31-.05l-1,.09a25,25,0,0,1-2.74,0c-.46,0-.91,0-1.37-.1l-.68-.07q1.06.15.48.06a29.46,29.46,0,0,1-5-1.27l-.48-.18c-.51-.2-.43-.17.24.11a5.17,5.17,0,0,1-1.24-.58,26.42,26.42,0,0,1-2.37-1.36,5,5,0,0,0-6.85,1.8,5.12,5.12,0,0,0,1.8,6.84,31.07,31.07,0,0,0,24.9,3.6,5,5,0,1,0-2.66-9.64Z" transform="translate(0 0)"/><path class="cls-11" d="M735.24,550.48c-4.67,35.54-40.8,63.19-84.68,63.19a100.41,100.41,0,0,1-28.07-3.95c-30.42-8.85-53-31.67-56.6-59.24,3.62-27.57,26.18-50.39,56.6-59.24a100.41,100.41,0,0,1,28.07-3.95C694.44,487.29,730.57,514.94,735.24,550.48Z" transform="translate(0 0)"/><path class="cls-12" d="M735.24,550.48c-4.67,35.54-40.8,63.19-84.68,63.19a100.41,100.41,0,0,1-28.07-3.95c-20.82-13.12-34.42-34.76-34.42-59.24s13.6-46.13,34.42-59.24a100.41,100.41,0,0,1,28.07-3.95C694.44,487.29,730.57,514.94,735.24,550.48Z" transform="translate(0 0)"/><circle class="cls-11" cx="633.97" cy="538.1" r="27.69"/><path class="cls-10" d="M555.18,550.48C560.47,590.69,601.35,622,651,622s90.53-31.29,95.81-71.5C741.53,510.26,700.64,479,651,479S560.47,510.26,555.18,550.48Zm11.14,0c4.68-35.54,40.81-63.19,84.68-63.19a100.31,100.31,0,0,1,28.07,3.95c30.42,8.85,53,31.67,56.61,59.24-3.63,27.57-26.19,50.39-56.61,59.24A100.31,100.31,0,0,1,651,613.67C607.13,613.67,571,586,566.32,550.48Z" transform="translate(0 0)"/><path class="cls-10" d="M740.59,548.58a30.87,30.87,0,0,0,25.12,1.11,5.48,5.48,0,0,0,3-2.3,5.12,5.12,0,0,0,.5-3.85c-.75-2.31-3.57-4.57-6.15-3.49a25.68,25.68,0,0,1-5.15,1.55,9.55,9.55,0,0,0-1.07.18c.74-.1.83-.12.26,0l-.71.06c-.84.06-1.68.09-2.52.07a8.08,8.08,0,0,1-2.51-.18c.74.11.82.12.26,0l-.71-.12-1-.22c-.82-.19-1.62-.42-2.42-.69a6.15,6.15,0,0,1-1.34-.5c1.14.73-.16-.09-.45-.23-2.35-1.14-5.51-.72-6.84,1.79-1.19,2.24-.72,5.63,1.79,6.84Z" transform="translate(0 0)"/><path class="cls-10" d="M731.26,527a31.07,31.07,0,0,0,24.9-3.6c2.2-1.41,3.3-4.51,1.8-6.84a5.08,5.08,0,0,0-6.85-1.8,26.42,26.42,0,0,1-2.37,1.36,5.17,5.17,0,0,1-1.24.58c.67-.28.75-.31.24-.11l-.32.12a29.3,29.3,0,0,1-5.13,1.33q-.59.09.48-.06l-.68.07c-.46,0-.91.08-1.37.1-.85,0-1.71,0-2.57,0l-1.19-.1c-.56-.06-.46,0,.31.05l-.68-.11a24.55,24.55,0,0,1-2.67-.61,5.05,5.05,0,0,0-6.15,3.49,5.1,5.1,0,0,0,3.49,6.15Z" transform="translate(0 0)"/><path class="cls-4" d="M509,81c1.59-18.91-16.6-33.27-22.74-51.23A36.48,36.48,0,0,1,514.21,81" transform="translate(0 0)"/><path class="cls-4" d="M516.73,77.22c-1.52-2.57-.71-6,1.19-8.33s4.65-3.71,7.37-5a116.66,116.66,0,0,1,22.35-7.54c6.83-1.56,15.23-2,19.54,3.54L508.09,83.12" transform="translate(0 0)"/><path class="cls-4" d="M808,338.86H189.43c20.18-150.79,151-267.17,309.27-267.17S787.8,188.07,808,338.86Z" transform="translate(0 0)"/><path class="cls-4" d="M489.77,721.35a88.31,88.31,0,0,1,9.06-.13c1.45,0,2.9.14,4.34.27l2.17.22,1.26.15-.43-.05.72.1a5.53,5.53,0,0,0,3.85-.5,5,5,0,0,0,1.79-6.85,4.79,4.79,0,0,0-3-2.29,94.2,94.2,0,0,0-19.78-.92c-2.61.17-5.13,2.18-5,5,.11,2.57,2.2,5.19,5,5Z" transform="translate(0 0)"/><path class="cls-4" d="M239.94,441.42c5.4,10.14,6.25,22.27,4.14,33.56s-7,21.89-12.61,31.92a7.24,7.24,0,0,1-2.62,3.08c-3.39,1.78-6.85-2.31-8.22-5.89-5.27-13.71-5.14-28.82-4.94-43.51.07-5.25.24-10.82,3.16-15.18s9.66-6.54,13.5-3" transform="translate(0 0)"/><path class="cls-4" d="M760.06,441.42c-5.4,10.14-6.25,22.27-4.14,33.56s7,21.89,12.61,31.92a7.24,7.24,0,0,0,2.62,3.08c3.39,1.78,6.85-2.31,8.22-5.89,5.27-13.71,5.14-28.82,4.94-43.51-.07-5.25-.24-10.82-3.16-15.18s-9.66-6.54-13.5-3" transform="translate(0 0)"/><path class="cls-4" d="M678.73,314.25c-7.51,16.13-5.39,34.92-2.55,52.48,3.17,19.56,7.47,39.94,20.3,55,10.6,12.49,25.95,20,41.49,25.13,13.52,4.5,29.35,7.21,41.26-.61,10.22-6.72,14.63-19.36,17.38-31.28,4.34-18.81,6.21-38.45,2.77-57.45s-12.55-37.35-27.4-49.68c-22.57-18.75-55-21.1-83.72-15.19-8.67,1.78-18.48,5.39-21.15,13.83-2.34,7.41,1.92,15.06,4.44,22.42a51.07,51.07,0,0,1,.62,30.8" transform="translate(0 0)"/><path class="cls-13" d="M522.59,801.67l-22.27,5.18-.32,0a1.55,1.55,0,0,1-.31,0l-22.28-5.18Z" transform="translate(0 0)"/><path class="cls-5" d="M562.45,801.67v35.75H437.55V801.67h39.86l22.28,5.18a1.55,1.55,0,0,0,.31,0l.32,0,22.27-5.18Z" transform="translate(0 0)"/><path class="cls-10" d="M550.11,460.13Q559.49,458,569,456.3c3.15-.56,6.32-1.08,9.48-1.57l4.41-.65,2.32-.32.3,0,1.63-.21c12.56-1.6,25.2-2.6,37.85-3q19.23-.61,38.44.61,9.48.61,18.92,1.66c1.48.16,3,.33,4.43.52l2.33.29,1.39.18c1.11.14-.68-.1.53.07,3.1.43,6.19.88,9.28,1.38a398.79,398.79,0,0,1,42.14,9.15,5,5,0,0,0,2.66-9.64A406.26,406.26,0,0,0,591.28,443a411.46,411.46,0,0,0-43.83,7.49,5,5,0,0,0-3.49,6.15,5.11,5.11,0,0,0,6.15,3.49Z" transform="translate(0 0)"/><path class="cls-10" d="M452.55,450.49a405.56,405.56,0,0,0-155-5,399.58,399.58,0,0,0-42.61,9.23,5,5,0,0,0,2.66,9.64q18.54-5.08,37.52-8.38c3.08-.53,6.16-1,9.26-1.49,1.54-.23,3.09-.45,4.64-.66,1-.14.27,0,.06,0l1.4-.18,2.56-.33q9.42-1.15,18.9-1.87a402.15,402.15,0,0,1,76.32,1.5q2.79.32,5.58.68l.93.12.53.07,2.79.39q5.34.78,10.65,1.69,10.63,1.83,21.15,4.23c2.55.58,5.54-.78,6.15-3.49.58-2.55-.76-5.53-3.49-6.15Z" transform="translate(0 0)"/><path class="cls-4" d="M673.13,366.64a180.74,180.74,0,0,1-21.56,49c-7.6,11.88-17.21,23.11-30,29-26.79,12.28-59.72-3.18-76.84-27.16s-22.26-54.22-27-83.31c-7.62,29.48-15.3,59.15-28.09,86.78-8.56,18.48-21,37.26-40.39,43.42-26.76,8.49-55.81-11.83-67-37.57s-9.23-55.06-7-83.05c-13.95,33.16-30.88,66.08-57.43,90.36-26.09,23.88-63.17,38.18-97.41,29.72l-1.78-.46c-5.4-1.46-10.82-3.58-14.79-7.53-3.62-3.61-5.71-8.43-7.52-13.21a180.15,180.15,0,0,1-3.21-117.23l27.66-6.29L678.19,215c1.25,12.51,2.39,25.21,3.2,38C683.82,291.57,683.18,330.7,673.13,366.64Z" transform="translate(0 0)"/><rect class="cls-4" height="29.97" rx="5.35" width="17.85" x="790.24" y="608.66"/></g></svg>