<?xml version="1.0" ?><svg data-name="Layer 1" id="Layer_1" viewBox="0 0 1000 1095.49" xmlns="http://www.w3.org/2000/svg" xmlns:xlink="http://www.w3.org/1999/xlink"><defs><style>.cls-1{fill:none;}.cls-2{clip-path:url(#clip-path);}.cls-3{fill:#981e5b;}.cls-4{fill:#735a25;}.cls-5{fill:#fff;}.cls-6{fill:#3d2521;}.cls-7{fill:#f9cd9d;}.cls-8{fill:#efac70;}.cls-9{fill:#f6d8d4;}.cls-10{fill:#c5494a;}.cls-11{fill:#f29c62;}.cls-12{fill:#f1bcb5;}</style><clipPath id="clip-path" transform="translate(0 0)"><rect class="cls-1" height="1000" width="1000"/></clipPath></defs><title/><line class="cls-1" x1="677.78" x2="677.78" y1="1079.99" y2="1066.81"/><g class="cls-2"><rect class="cls-3" height="1000" width="1000"/><rect class="cls-4" height="46.51" width="155.8" x="422.1" y="814.88"/><ellipse class="cls-5" cx="500" cy="911.62" rx="245.34" ry="85.05"/><path class="cls-5" d="M745.34,916.8v134.55a22,22,0,0,1-22.05,22.05H276.71a22,22,0,0,1-22-22.05V916.8a21.42,21.42,0,0,1,.13-2.42h0a22.06,22.06,0,0,1,21.92-19.62H723.29a22.06,22.06,0,0,1,21.92,19.62h0A21.42,21.42,0,0,1,745.34,916.8Z" transform="translate(0 0)"/><rect class="cls-6" height="289.83" rx="16.03" width="600.19" x="199.91" y="320.35"/><polygon class="cls-7" points="562.45 765.56 562.45 831.27 539.15 854.57 460.85 854.57 437.55 831.27 437.55 765.56 562.45 765.56"/><path class="cls-8" d="M562.45,765.56v26.6c-19.6,4.82-40.33,9.62-62.13,14.69l-.32,0a1.55,1.55,0,0,1-.31,0c-21.81-5.07-42.54-9.87-62.14-14.69v-26.6Z" transform="translate(0 0)"/><path class="cls-7" d="M761.09,547.25a59.5,59.5,0,0,0,.63,20.7c2.54,12,8.78,21.69,16.79,26.22q-.69,10.44-2.12,20c-13.56,91.56-76.29,126.2-175,153.7q-12.5,3.5-25.78,6.85-8.24,2.1-16.75,4.18c-18.06,4.41-37.06,8.82-57,13.44l-1.58.37a1.73,1.73,0,0,1-.32,0,1.63,1.63,0,0,1-.31,0l-1.6-.37c-19.88-4.63-38.87-9-56.91-13.44q-7.79-1.89-15.33-3.81-13.51-3.42-26.24-6.94c-98.87-27.42-161.85-61.82-175.82-152.82q-1.51-9.89-2.26-20.67c9-4.58,15.92-15.57,18.17-29.2a59,59,0,0,0,.78-9.62c0-17.25-7.32-32-17.69-38.13-.44-.26-.88-.5-1.33-.73q.15-5.07.36-10.22c2.36-57.69,10.36-122.35,37.46-165.46C303.09,271.57,374,225.88,454.89,209.68a336.32,336.32,0,0,1,44.79-5.88l.31,0,.32,0a329.58,329.58,0,0,1,93.2,19.54c60.47,22.31,112.38,62.54,147.2,118,26.92,42.83,35,106.92,37.42,164.32v0l.09,2.22q.19,4.84.33,9.62h0l-.41.24a26.24,26.24,0,0,0-5.17,4C767,527.58,762.64,536.66,761.09,547.25Z" transform="translate(0 0)"/><path class="cls-7" d="M778.2,330.08V502.47a9.27,9.27,0,0,1-.54,3.15v0c-1.78,5.23-7.91,9.08-15.2,9.08H236.09c-6.75,0-12.52-3.31-14.75-8a9.89,9.89,0,0,1-1-4.29V330.08q0-8.29.79-16.45c10.79-112.24,131.2-200.71,278.14-200.71a358.2,358.2,0,0,1,52.82,3.89,341.21,341.21,0,0,1,36.63,7.52,315.38,315.38,0,0,1,65.15,25q2.32,1.2,4.6,2.45a272.37,272.37,0,0,1,45.24,30.6c41.73,35,68.82,80.71,73.68,131.26Q778.2,321.77,778.2,330.08Z" transform="translate(0 0)"/><path class="cls-9" d="M778.2,490.61v5.28l-1,.08q-3.48.25-7,.34A43.36,43.36,0,0,1,778.2,490.61Z" transform="translate(0 0)"/><ellipse class="cls-8" cx="500" cy="670.64" rx="25.68" ry="11.73"/><rect class="cls-6" height="185.45" width="20.84" x="211.69" y="308.01"/><rect class="cls-6" height="185.45" width="20.84" x="767.47" y="308.01"/><ellipse class="cls-7" cx="204.19" cy="555.84" rx="48.07" ry="69.8"/><path class="cls-8" d="M221.05,594.66a20.52,20.52,0,0,1-9.36,2.3c-15.64,0-28.32-18.41-28.32-41.12s12.68-41.12,28.32-41.12A20.61,20.61,0,0,1,221,517c-.63,20.47-.63,39.82-.63,56.69Q220.35,584.59,221.05,594.66Z" transform="translate(0 0)"/><ellipse class="cls-7" cx="795.81" cy="555.84" rx="48.07" ry="69.8"/><path class="cls-8" d="M816.63,555.84c0,22.71-12.68,41.12-28.32,41.12A20.76,20.76,0,0,1,778,594.17q.66-9.85.66-20.5c0-16,0-34.12-.53-53.36,0-.94,0-1.88-.09-2.82h0a20.82,20.82,0,0,1,10.23-2.76C804,514.72,816.63,533.13,816.63,555.84Z" transform="translate(0 0)"/><path class="cls-7" d="M563.07,830.65l-.62.62-23.3,23.3L500,893.72l-39.15-39.15-23.3-23.3-.62-.62.62-.42c14.34-9.64,37-15.85,62.45-15.85s48.11,6.21,62.45,15.85Z" transform="translate(0 0)"/><ellipse class="cls-5" cx="342.28" cy="559.68" rx="44.99" ry="78.36" transform="translate(-219.03 899.28) rotate(-89.73)"/><path class="cls-6" d="M350.54,515c-40.38-2.58-77.24,14.85-86.18,39.72-.34,25.43,29.3,47.12,69.67,49.7s77.24-14.85,86.18-39.72C420.55,539.25,390.91,517.56,350.54,515ZM335,599.19a100,100,0,0,1-22.38-3.93c-23.71-7.11-39.43-22.56-39.19-40,6.13-17,27.11-30.14,52.87-34.09a108.58,108.58,0,0,1,23.29-1c35.68,2.28,61.87,21.46,61.57,43.92C403.25,586.07,370.67,601.48,335,599.19Z" transform="translate(0 0)"/><path class="cls-4" d="M411.15,564.09c-7.9,22-40.48,37.39-76.16,35.1a100,100,0,0,1-22.38-3.93c-15.42-9.28-24-23.52-21.15-38.83s16.38-28.13,34.83-35.25a108.58,108.58,0,0,1,23.29-1C385.26,522.45,411.45,541.63,411.15,564.09Z" transform="translate(0 0)"/><path class="cls-6" d="M269.33,551.93a74.76,74.76,0,0,0-11-2.2,3.68,3.68,0,0,0-2.65,1.1,3.81,3.81,0,0,0-1.1,2.65,3.76,3.76,0,0,0,1.1,2.65l.75.59a3.73,3.73,0,0,0,1.9.51l.38,0-1-.14a68.51,68.51,0,0,1,9.62,2,3.75,3.75,0,1,0,2-7.23Z" transform="translate(0 0)"/><ellipse class="cls-5" cx="645.94" cy="559.68" rx="78.36" ry="44.99" transform="translate(-2.68 3.1) rotate(-0.27)"/><path class="cls-6" d="M720.89,559.16a68.51,68.51,0,0,1,9.62-2l-1,.14.38,0a4.15,4.15,0,0,0,2.65-1.1,3.82,3.82,0,0,0,1.1-2.65,3.75,3.75,0,0,0-1.1-2.65,3.54,3.54,0,0,0-2.65-1.1,74.89,74.89,0,0,0-11,2.2,3.75,3.75,0,1,0,2,7.23Z" transform="translate(0 0)"/><path class="cls-4" d="M718.92,561c-7.25,22.78-40,39.78-76.58,38.8a102.92,102.92,0,0,1-23.05-3.17c-16.13-8.92-25.42-23.16-23.11-38.93s15.69-29.4,34.29-37.39a111,111,0,0,1,23.79-1.91C690.85,519.41,718.38,538,718.92,561Z" transform="translate(0 0)"/><path class="cls-6" d="M568,564.67c8.94,24.87,45.8,42.31,86.18,39.72s70-24.27,69.67-49.7c-8.94-24.87-45.8-42.3-86.18-39.72S567.68,539.25,568,564.67Zm9.06-.58c-.3-22.46,25.89-41.64,61.57-43.92a108.58,108.58,0,0,1,23.29,1c25.76,4,46.74,17,52.87,34.09.23,17.43-15.48,32.88-39.2,40a99.89,99.89,0,0,1-22.37,3.93C617.56,601.48,585,586.07,577.08,564.09Z" transform="translate(0 0)"/><circle class="cls-5" cx="323.88" cy="559.68" r="18.4"/><circle class="cls-5" cx="628.63" cy="559.68" r="18.4"/><path class="cls-6" d="M554.12,489.65c30.69-22.87,66.64-36,102.64-46.49a53.82,53.82,0,0,1,12.11-2.52c6.11-.34,12.15,1.34,18.08,3L744.82,460" transform="translate(0 0)"/><path class="cls-6" d="M445.88,489.65c-30.69-22.87-66.64-36-102.64-46.49a53.82,53.82,0,0,0-12.11-2.52c-6.11-.34-12.15,1.34-18.08,3L255.18,460" transform="translate(0 0)"/><path class="cls-10" d="M557.77,714.26c0,13.58-25.87,24.58-57.77,24.58s-57.77-11-57.77-24.58Z" transform="translate(0 0)"/><path class="cls-6" d="M573.62,688.51H426.38A27.45,27.45,0,0,0,398.93,716v48.93a27,27,0,0,0,.2,3.26q12.74,3.54,26.24,6.94a20.6,20.6,0,0,1-8.69-16.82v-35.7A20.63,20.63,0,0,1,437.31,702H562.69a20.63,20.63,0,0,1,20.63,20.62v35.7a20.56,20.56,0,0,1-8.19,16.45q13.27-3.37,25.78-6.85a26.66,26.66,0,0,0,.16-3V716A27.45,27.45,0,0,0,573.62,688.51Zm-76,103.83h3.81c19.9-4.62,38.9-9,57-13.44H440.7C458.74,783.31,477.73,787.71,497.61,792.34Z" transform="translate(0 0)"/><path class="cls-6" d="M778.49,595.63c-7.1,106.69-71.53,144.28-177.13,173.7q-12.5,3.49-25.78,6.85c-5.49,1.4-11.06,2.79-16.75,4.18-18.06,4.41-37.06,8.82-57,13.44l-1.59.37-.32,0a1.48,1.48,0,0,1-.31,0l-1.59-.37c-19.89-4.63-38.87-9-56.92-13.44q-7.78-1.89-15.32-3.81-13.51-3.42-26.25-6.94c-106-29.41-170.78-66.83-178.07-173.49.6-.31,1.19-.65,1.78-1,14,91,77,125.4,175.82,152.82q12.74,3.54,26.24,6.94,7.56,1.92,15.33,3.81c18,4.41,37,8.81,56.91,13.44l1.61.37.31,0a1.58,1.58,0,0,0,.32,0l1.57-.37c19.9-4.62,38.9-9,57-13.44q8.52-2.08,16.75-4.18,13.27-3.37,25.78-6.85c98.72-27.5,161.45-62.14,175-153.7A23.43,23.43,0,0,0,778.49,595.63Z" transform="translate(0 0)"/><polygon class="cls-6" points="237.92 563.59 226.8 555.39 226.8 490.42 232.71 490.42 232.71 547.2 237.92 563.59"/><polygon class="cls-6" points="762.08 563.59 773.2 555.39 773.2 490.42 767.29 490.42 767.29 547.2 762.08 563.59"/><path class="cls-11" d="M674.49,322.32a176.9,176.9,0,0,1-19.44-12.89c9.76,9.35,19.62,18.58,30.26,26.87H639.44c-14-3.61-27.72-8.24-40.54-14.93l-2-1.07c4.23,5.41,8.48,10.85,13,16H424.62C371.67,314,319.26,288.41,262.27,285c-7-.41-14.88-.12-19.65,5a14.29,14.29,0,0,0-2.36,3.47,120,120,0,0,0-2.38,21.38l-5.15,21.44H199.8c0-5.54.32-11,.84-16.49,11.61-120.8,141.21-216,299.37-216A386.28,386.28,0,0,1,556.86,108a368.67,368.67,0,0,1,39.42,8.09A339.55,339.55,0,0,1,666.4,143c1.67.86,3.32,1.75,5,2.64a293.42,293.42,0,0,1,48.69,32.93c44.91,37.66,74.07,86.87,79.3,141.28.07.72.14,1.45.2,2.18.4,4.73.62,9.51.65,14.31h-96A211.77,211.77,0,0,1,674.49,322.32Z" transform="translate(0 0)"/><path class="cls-6" d="M237.53,303a35.64,35.64,0,0,1,2.73-9.55,120,120,0,0,0-2.38,21.38l-5.15,21.44-2,8.25q.58-4.12,1.22-8.25Q234.49,319.62,237.53,303Z" transform="translate(0 0)"/><path class="cls-11" d="M706.27,388.14c-19.54,6.74-40.73,6.57-61.36,5.33a636,636,0,0,1-189.78-41.22c-8.87-3.42-17.71-7.05-26.53-10.77-53-22.3-105.36-47.89-162.35-51.28-7-.41-14.88-.12-19.65,5a14.29,14.29,0,0,0-2.36,3.47,125.15,125.15,0,0,1,23.91-52.11,119.24,119.24,0,0,1,8.35-9.61c21.67-22.39,51.35-35.86,81.86-42.21s62-6,93.11-4c13.55.89,27.54,2.23,39.43,8.79,9.94,5.47,17.65,14.17,25.08,22.75q43.35,50,84.1,102.16l.79,1c4.23,5.41,8.48,10.85,13,16a123.09,123.09,0,0,0,11.26,11.35C647.56,372.44,677.48,380.58,706.27,388.14Z" transform="translate(0 0)"/><path class="cls-11" d="M785.41,376.87c-35.93-.3-71.52-6.57-106.84-13.15-12.32-2.29-24.72-4.65-36.87-7.78-14-3.61-27.72-8.24-40.54-14.93l-2-1.07c-2.15-1.16-4.27-2.38-6.36-3.64-15.17-9.14-28.94-20.55-43.41-30.82-74.47-52.9-169.81-75.5-260.1-61.66L266.43,261l-35.68,26.84c9.75-35.27,38.71-63,72-78.27s70.53-19.47,107.12-20.06c20.07-.32,40.24.39,60,4,61.18,11.26,113.31,49.3,159.57,91.62q8,7.29,15.73,14.72l9.94,9.55c9.76,9.35,19.62,18.58,30.26,26.87,1.87,1.46,3.76,2.88,5.68,4.28a194.73,194.73,0,0,0,24.91,15.36A197.12,197.12,0,0,0,785.41,376.87Z" transform="translate(0 0)"/><polygon class="cls-7" points="233.23 350.93 232.95 351.03 233.17 350.77 233.23 350.93"/><polygon class="cls-7" points="295.73 328.88 295.67 328.9 295.66 328.87 295.73 328.88"/><polygon class="cls-7" points="308.74 367.94 245.96 388.96 233.23 350.93 295.67 328.9 308.74 367.94"/><polygon class="cls-7" points="301.4 313.86 301.12 313.96 301.34 313.7 301.4 313.86"/><polygon class="cls-7" points="363.9 291.81 363.84 291.83 363.83 291.8 363.9 291.81"/><polygon class="cls-7" points="306.74 330.98 244.3 353.01 244.24 352.85 252.38 343.34 252.39 343.34 295.6 328.87 306.73 330.95 306.74 330.98"/><path class="cls-11" d="M244.89,239.39c-9.43-17.61-19.17-37-15.53-56.65,2.72-14.65,12.46-26.81,20.68-39.23a220.64,220.64,0,0,0,30-67.86c6.57,51.71-18.4,101.67-27.21,153" transform="translate(0 0)"/><path class="cls-11" d="M257.48,166.83c7.28-14,14.9-28.39,27.19-38.27,9.75-7.83,21.73-12.23,33.39-16.76a851.81,851.81,0,0,0,92.76-42.6c-4.27,9.74-9.26,19.14-14.23,28.53L372.05,144c-6.16,11.63-12.38,23.33-20.65,33.56A132.75,132.75,0,0,1,326.18,201a187.13,187.13,0,0,1-72.24,32c-2,.4-4.13.76-5.93-.16-2.3-1.16-3.19-3.94-3.78-6.45A124.72,124.72,0,0,1,245.62,164" transform="translate(0 0)"/><path class="cls-11" d="M370.26,108.29A167.33,167.33,0,0,0,442.69,70c-7.73,23-21.5,43.41-35.11,63.51-8.34,12.31-17.2,25.11-30.36,32a67.77,67.77,0,0,1-14.69-41.87" transform="translate(0 0)"/><path class="cls-11" d="M414,107.57A765.37,765.37,0,0,0,498.7,80.93c15.17-5.76,30.76-12.43,41.2-24.85-10.31,23.35-20.78,47-36.58,67s-37.76,36.44-63,40.21a126.31,126.31,0,0,0-39.74-42.06" transform="translate(0 0)"/><path class="cls-11" d="M239.05,224.47c-3.22-10.71-12.82-18.06-22.07-24.33-11.09-7.52-23.74-14.88-37-13.09a145.53,145.53,0,0,0,15.88,23,69.57,69.57,0,0,0,13.86,13.08,45.74,45.74,0,0,0,27.19,7.71" transform="translate(0 0)"/><path class="cls-11" d="M229.91,231a184,184,0,0,0-21.61,5.15c-7.16,2.18-14.73,5.22-18.63,11.61a58.09,58.09,0,0,1,46.51-7.33,11.21,11.21,0,0,1,4.34-13.87" transform="translate(0 0)"/><path class="cls-11" d="M205.27,315.69a40.38,40.38,0,0,1-11.91,21.58c-4.59,4.31-10.13,7.47-15,11.52a67.3,67.3,0,0,0,40-16.28,2.37,2.37,0,0,0,.14-4.07,38,38,0,0,0-12.41-9.28" transform="translate(0 0)"/><path class="cls-11" d="M512.76,106.64c20.1-13.85,47.08-8.53,71.07-4.06a625.5,625.5,0,0,0,121.23,10.56L655.24,147.6c-11.45,7.92-22.93,15.86-35.2,22.45-33,17.75-71.26,25.22-108.65,22.55-7-.5-14.11-1.38-20.44-4.41-18.39-8.78-24.15-31.71-27.81-51.77" transform="translate(0 0)"/><path class="cls-11" d="M616.13,144.12a445.6,445.6,0,0,0,125.53-18.05c-4.33,10.17-13.14,17.68-22,24.27a289.5,289.5,0,0,1-135.48,54.43c-1.5.19-3.14.33-4.39-.52s-1.73-2.42-2.12-3.88c-3-11.07-6-22.59-3.82-33.84s11.11-22.09,22.56-22.38" transform="translate(0 0)"/><path class="cls-11" d="M676,154.85A523.22,523.22,0,0,0,803.87,190c-4.46,3.46-10.36,4.26-16,4.9a1192.76,1192.76,0,0,1-154.09,7.5c-2.09,0-4.35-.14-6-1.47-2.3-1.92-2.23-5.42-2-8.41l2.52-27.26c.18-1.85.41-3.84,1.68-5.19a8.45,8.45,0,0,1,4.43-2l26.86-6.17" transform="translate(0 0)"/><path class="cls-11" d="M859,359.85a484,484,0,0,1-74.86-3.23c-26.15-3.16-52.31-8.57-76.85-17.94a218.36,218.36,0,0,1-30.61-14.4,182.85,182.85,0,0,1-20-13.28,167.45,167.45,0,0,1-26.44-25,136.78,136.78,0,0,1-25.79-45.31c-1.75-5.3-3.14-11.14-1.26-16.4,4.2-11.84,20.36-12.7,32.84-11.42l-16,3.77a317,317,0,0,1,145.76,70.61c13.55,11.67,26.34,24.63,39.69,36.69C821.7,338.59,838.74,351.89,859,359.85Z" transform="translate(0 0)"/><path class="cls-11" d="M739.4,191.51a112.52,112.52,0,0,0,72.21,36l-64,.45c-8.19.05-16.66.06-24.18-3.17s-13.92-10.6-13.34-18.78,10.56-14.92,17.5-10.56" transform="translate(0 0)"/><path class="cls-11" d="M724.46,203.31a150.25,150.25,0,0,1,63,47.7c11.35,14.78,20,31.77,33.52,44.6A82.48,82.48,0,0,0,878.38,318q-25.56,1.66-51.18,1.56c-18-.08-36.14-.84-53.42-5.75-39.36-11.18-71.37-45.05-80.31-85" transform="translate(0 0)"/><path class="cls-6" d="M241.76,391.15l-3.23-43.34c0-.32,0-.64,0-1h0l.48-18.63c.2-7.69.42-15.47,2.5-22.87s6.25-14.51,12.77-18.53c7-4.29,15.56-4.57,23.72-4.7,9.86-.15,19.88-.22,29.4,2.38,7.39,2,14.26,5.59,21.07,9.14l42.28,22a66.75,66.75,0,0,1,10.06,6,282.11,282.11,0,0,1-66.28-13.59c-4.58-1.53-10-3.06-13.89-.14-2.38,1.81-3.42,4.85-4.18,7.75a83.62,83.62,0,0,0-.57,39.93l-26.34-8.35a52,52,0,0,0-8.35-2.09,16.27,16.27,0,0,0-8.83.92c-8.08,3.54-9.94,14.06-10.31,22.91q-.45,10.71-.15,21.43Z" transform="translate(0 0)"/><path class="cls-6" d="M262.43,344.71c-4.14,1.45-7.32,4.87-9.65,8.58-4.78,7.62-6.61,16.66-8.32,25.49s-3.43,17.87-8.05,25.58-12.8,13.95-21.79,13.62l11.92-48.77c2-8.07,4.38-16.81,11.08-21.72,6.48-4.75,15.19-4.6,23.21-4.2Z" transform="translate(0 0)"/><path class="cls-11" d="M231.72,377.47l-3.23-43.32c0-.32,0-.64,0-1h0l.48-18.63c.21-7.69.42-15.47,2.5-22.87s6.25-14.51,12.77-18.53c7-4.29,15.56-4.57,23.72-4.7,9.87-.15,19.88-.22,29.4,2.38,7.4,2,14.27,5.59,21.07,9.14l42.29,22a67.15,67.15,0,0,1,10.05,6,282.11,282.11,0,0,1-66.28-13.59c-4.58-1.53-10-3.06-13.88-.14-2.39,1.81-3.43,4.85-4.19,7.75a83.62,83.62,0,0,0-.57,39.93l-26.34-8.35a51.66,51.66,0,0,0-8.34-2.09,16.31,16.31,0,0,0-8.84.92c-8.08,3.54-9.94,14.06-10.31,22.91q-.45,10.71-.14,21.42Z" transform="translate(0 0)"/><path class="cls-11" d="M252.4,331.05c-4.15,1.45-7.32,4.87-9.66,8.58-4.78,7.62-6.61,16.66-8.31,25.49S231,383,226.37,390.7s-12.8,13.95-21.79,13.62l11.92-48.77c2-8.07,4.38-16.81,11.08-21.72,6.48-4.75,15.2-4.6,23.21-4.2Z" transform="translate(0 0)"/><path class="cls-11" d="M246.46,327.65c-6.71-.86-11,6.88-12.73,13.42a110.67,110.67,0,0,0-3.57,28.58c0,4.25.3,8.54-.44,12.72-2,11.42-11.41,20.45-22.07,25s-22.51,5.32-34.09,5.66c19.8-24,23.53-56.84,30.92-87,.53-2.14,1.13-4.37,2.64-6s4-2.43,6.29-2.95c5.68-1.29,11.71-1.84,17.24,0s10.44,6.37,11.3,12.12Z" transform="translate(0 0)"/><path class="cls-7" d="M563.07,830.65l-.62.62-23.3,23.3-6.82,6.82q-15.87-.72-32.33-.73t-32.33.73l-6.82-6.82-23.3-23.3-.62-.62.62-.42c14.34-9.64,37-15.85,62.45-15.85s48.11,6.21,62.45,15.85Z" transform="translate(0 0)"/><path class="cls-12" d="M745.34,933.71c0,.92,0,1.84-.13,2.75h0C741,982.16,632.84,1018.75,500,1018.75s-241-36.59-245.21-82.28h0c-.09-.91-.13-1.83-.13-2.75,0-37.53,70.13-69.38,167.44-80.67q17-2,35.07-3.09L500,892.77,542.83,850q18,1.09,35.07,3.09C675.21,864.33,745.34,896.18,745.34,933.71Z" transform="translate(0 0)"/><path class="cls-12" d="M745.34,938.89v134.55a22,22,0,0,1-22.05,22H276.71a22,22,0,0,1-22-22V938.89a21.42,21.42,0,0,1,.13-2.42h0a22.06,22.06,0,0,1,21.92-19.62H723.29a22.06,22.06,0,0,1,21.92,19.62h0A21.42,21.42,0,0,1,745.34,938.89Z" transform="translate(0 0)"/><polygon class="cls-11" points="502.45 895.22 422.1 895.22 422.1 814.88 457.17 849.95 500 892.77 502.45 895.22"/><polygon class="cls-11" points="577.9 814.88 577.9 895.22 497.55 895.22 500 892.77 542.83 849.95 577.9 814.88"/><rect class="cls-11" height="116.39" width="32.83" x="483.59" y="895.22"/></g></svg>