<?xml version="1.0" ?><svg data-name="Layer 1" id="Layer_1" viewBox="0 0 1000 1090.93" xmlns="http://www.w3.org/2000/svg" xmlns:xlink="http://www.w3.org/1999/xlink"><defs><style>.cls-1{fill:none;}.cls-2{clip-path:url(#clip-path);}.cls-3{fill:#b04b4b;}.cls-4{fill:#90d6e9;}.cls-5{fill:#fff;}.cls-6{fill:#f6d8d4;}.cls-7{fill:#f4b1a4;}.cls-8{fill:#de9a9a;}.cls-9{fill:#35312e;}.cls-10{fill:#b5e3ee;}</style><clipPath id="clip-path" transform="translate(0 0)"><rect class="cls-1" height="1000" width="1000"/></clipPath></defs><title/><g class="cls-2"><rect class="cls-3" height="1000" width="1000"/><rect class="cls-4" height="85.3" width="157.1" x="421.39" y="795.19"/><ellipse class="cls-5" cx="500" cy="911.62" rx="245.34" ry="85.05"/><rect class="cls-5" height="178.65" rx="22.05" width="490.67" x="254.66" y="894.75"/><rect class="cls-6" height="89.01" width="124.9" x="437.55" y="765.56"/><path class="cls-7" d="M562.45,765.56v26.6c-19.6,4.82-40.33,9.62-62.13,14.69l-.32,0a1.55,1.55,0,0,1-.31,0c-21.81-5.07-42.54-9.87-62.14-14.69v-26.6Z" transform="translate(0 0)"/><path class="cls-6" d="M760.62,547.25a58.67,58.67,0,0,0-.62,8.59c0,17.45,7.48,32.36,18,38.33-9.16,137.41-113.37,160.2-278.2,198.54a1.73,1.73,0,0,1-.32,0,1.63,1.63,0,0,1-.31,0c-164.64-38.29-268.79-61.07-278.16-198.05,11-5.62,18.95-20.88,18.95-38.82s-7.95-33.27-19-38.86q.15-5.07.36-10.22c2.36-57.69,10.36-122.35,37.46-165.46,43.82-69.73,114.7-115.42,195.62-131.62a336.32,336.32,0,0,1,44.79-5.88l.31,0,.32,0A329.58,329.58,0,0,1,593,223.34c60.47,22.31,112.38,62.54,147.2,118,26.92,42.83,35,106.92,37.42,164.32v0l.09,2.22q.19,4.84.33,9.62h0a26.19,26.19,0,0,0-5.58,4.25C766.52,527.58,762.17,536.66,760.62,547.25Z" transform="translate(0 0)"/><path class="cls-6" d="M778.2,330.08V502.47a9.27,9.27,0,0,1-.54,3.15v0c-1.78,5.23-7.91,9.08-15.2,9.08H236.09c-6.75,0-12.52-3.31-14.75-8a9.89,9.89,0,0,1-1-4.29V330.08q0-8.29.79-16.45c10.79-112.24,131.2-200.71,278.14-200.71a358.2,358.2,0,0,1,52.82,3.89,341.21,341.21,0,0,1,36.63,7.52,315.38,315.38,0,0,1,65.15,25q2.32,1.2,4.6,2.45a272.37,272.37,0,0,1,45.24,30.6c41.73,35,68.82,80.71,73.68,131.26Q778.2,321.77,778.2,330.08Z" transform="translate(0 0)"/><path class="cls-6" d="M778.2,490.61v5.28l-1,.08q-3.48.25-7,.34A43.36,43.36,0,0,1,778.2,490.61Z" transform="translate(0 0)"/><ellipse class="cls-6" cx="204.19" cy="555.84" rx="48.07" ry="69.8"/><path class="cls-7" d="M221.05,594.66a20.52,20.52,0,0,1-9.36,2.3c-15.64,0-28.32-18.41-28.32-41.12s12.68-41.12,28.32-41.12A20.61,20.61,0,0,1,221,517c-.63,20.47-.63,39.82-.63,56.69Q220.35,584.59,221.05,594.66Z" transform="translate(0 0)"/><line class="cls-1" x1="677.78" x2="677.78" y1="1079.99" y2="1066.81"/><ellipse class="cls-7" cx="500" cy="670.64" rx="25.68" ry="11.73"/><path class="cls-6" d="M578.49,854.57c0,17.61-22.13,32.57-52.92,38L500,857.19l-25.57,35.38c-30.79-5.43-52.92-20.39-52.92-38,0-14.07,14.12-26.46,35.51-33.64a144.29,144.29,0,0,1,86,0C564.37,828.11,578.49,840.5,578.49,854.57Z" transform="translate(0 0)"/><path class="cls-8" d="M557.77,700.8c0,13.58-25.87,24.58-57.77,24.58s-57.77-11-57.77-24.58Z" transform="translate(0 0)"/><path class="cls-9" d="M778.2,309.09v4.73H220.35v-4.73q0-8.29.79-16.45C231.93,180.4,352.35,91.93,499.29,91.93a358.06,358.06,0,0,1,52.81,3.89,341.21,341.21,0,0,1,36.63,7.52,315.38,315.38,0,0,1,65.15,25q2.32,1.2,4.6,2.45a271.87,271.87,0,0,1,45.23,30.6c41.74,35,68.83,80.71,73.69,131.26Q778.2,300.78,778.2,309.09Z" transform="translate(0 0)"/><path class="cls-9" d="M457.86,554.44a88.93,88.93,0,1,1-6.92-34.51A89.26,89.26,0,0,1,457.86,554.44Z" transform="translate(0 0)"/><circle class="cls-9" cx="631.4" cy="554.44" r="89.26"/><path class="cls-9" d="M570.74,546.1H549.4a73.52,73.52,0,0,0-98.8,0H429.26a89.27,89.27,0,0,1,141.48,0Z" transform="translate(0 0)"/><path class="cls-10" d="M442.11,554.44a73.39,73.39,0,1,1-8.59-34.51A73.51,73.51,0,0,1,442.11,554.44Z" transform="translate(0 0)"/><path class="cls-5" d="M400.27,488.08l-98,98a73.54,73.54,0,0,1,98-98Z" transform="translate(0 0)"/><circle class="cls-10" cx="631.4" cy="554.44" r="73.51"/><path class="cls-5" d="M663.07,488.08l-98,98a73.54,73.54,0,0,1,98-98Z" transform="translate(0 0)"/><path class="cls-9" d="M316.9,157.42V286.06c-51.47,42.56-84.68,109.85-84.68,185.58a249.76,249.76,0,0,0,17,91.16c-49.83-42.67-81.83-108.87-81.83-183.19C167.41,275.48,230.23,187.3,316.9,157.42Z" transform="translate(0 0)"/><path class="cls-9" d="M368.6,164v113.9c-45.58,37.68-75,97.27-75,164.33A221.1,221.1,0,0,0,308.69,523c-44.13-37.78-72.46-96.41-72.46-162.21C236.23,268.54,291.86,190.46,368.6,164Z" transform="translate(0 0)"/><polygon class="cls-9" points="778.2 309.09 778.2 506.94 735.91 528.69 735.91 301.75 778.02 301.75 778.2 309.09"/><ellipse class="cls-6" cx="795.81" cy="555.84" rx="48.07" ry="69.8"/><path class="cls-7" d="M816.63,555.84c0,22.71-12.68,41.12-28.32,41.12A20.76,20.76,0,0,1,778,594.17q.66-9.85.66-20.5c0-16,0-34.12-.53-53.36,0-.94,0-1.88-.09-2.82h0a20.82,20.82,0,0,1,10.23-2.76C804,514.72,816.63,533.13,816.63,555.84Z" transform="translate(0 0)"/><polygon class="cls-6" points="573.5 271.3 559.62 352.18 440.38 352.18 426.5 271.3 500 309.94 573.5 271.3"/><polygon class="cls-6" points="615.24 282.94 601.36 363.81 541.74 363.81 541.74 321.57 615.24 282.94"/><polygon class="cls-6" points="373.52 282.94 387.4 363.81 447.02 363.81 447.02 321.57 373.52 282.94"/><path class="cls-9" d="M380.77,207.61V275c-22.79,22.3-37.49,57.56-37.49,97.24A152,152,0,0,0,350.82,420c-22.07-22.36-36.23-57-36.23-96C314.59,269.47,342.4,223.26,380.77,207.61Z" transform="translate(0 0)"/><polygon class="cls-9" points="778.2 324.88 778.2 402.74 735.91 360.45 686.48 311.02 725.41 272.09 778.2 324.88"/><rect class="cls-9" height="79.43" width="79.43" x="631.4" y="248.3"/><polygon class="cls-6" points="684.49 304.56 649.96 379 592.41 363.42 603.45 322.65 684.49 304.56"/><polygon class="cls-6" points="647.23 295.63 633.35 376.51 573.73 376.51 573.73 334.27 647.23 295.63"/><polygon class="cls-6" points="709.11 314.95 674.58 389.4 617.03 373.82 628.07 333.05 709.11 314.95"/><path class="cls-9" d="M545.4,452.14q30.51-2.58,60.83-6.83,29.24-4,58.23-9.64,16.35-3.17,32.61-6.82c5.11-1.15,8.59-7.34,7-12.31a10.22,10.22,0,0,0-12.3-7q-36.68,8.25-73.87,14-10.53,1.62-21.09,3l2.66-.36q-27,3.61-54.05,5.91a10.68,10.68,0,0,0-7.07,2.93,10,10,0,0,0,0,14.14c1.86,1.71,4.45,3.15,7.07,2.93Z" transform="translate(0 0)"/><path class="cls-9" d="M453.15,432.14q-27.09-2.29-54-5.91l2.66.36q-37.26-5-74.13-12.55-10.44-2.15-20.83-4.48a10.56,10.56,0,0,0-7.71,1,10,10,0,0,0,2.39,18.28q28.8,6.47,57.91,11.4,30.18,5.12,60.62,8.59,16.55,1.89,33.14,3.3a10,10,0,0,0,7.07-17.07,11.14,11.14,0,0,0-7.07-2.93Z" transform="translate(0 0)"/><path class="cls-3" d="M513,853.48H487a13.45,13.45,0,0,0-11.66,6.73l-13,22.48a13.5,13.5,0,0,0,0,13.47l13,22.48A13.46,13.46,0,0,0,487,925.38h26a13.46,13.46,0,0,0,11.66-6.74l13-22.48a13.5,13.5,0,0,0,0-13.47l-13-22.48A13.45,13.45,0,0,0,513,853.48Z" transform="translate(0 0)"/><polygon class="cls-10" points="502.47 853.77 500 857.19 474.43 892.57 465.61 904.78 384.53 846.2 421.39 795.19 457.02 820.93 500 851.99 502.47 853.77"/><polygon class="cls-10" points="615.47 846.2 534.39 904.78 525.57 892.57 500 857.19 497.53 853.77 500 851.99 542.98 820.93 578.61 795.19 615.47 846.2"/><polygon class="cls-3" points="514.04 1090.93 461.89 1025.08 485.44 924.38 514.04 924.38 514.04 1090.93"/><polygon class="cls-3" points="485.96 1090.93 538.11 1025.08 514.56 924.38 485.96 924.38 485.96 1090.93"/></g></svg>