<?xml version="1.0" ?><svg data-name="Layer 1" id="Layer_1" viewBox="0 0 1000 1079.99" xmlns="http://www.w3.org/2000/svg" xmlns:xlink="http://www.w3.org/1999/xlink"><defs><style>.cls-1{fill:none;}.cls-2{clip-path:url(#clip-path);}.cls-3{fill:#32c1e3;}.cls-4{fill:#bc6028;}.cls-5{fill:#136188;}.cls-6{fill:#f6d8d4;}.cls-7{fill:#7a5039;}.cls-8{fill:#f4b1a4;}.cls-9{fill:#fff;}.cls-10{fill:#603f2f;}.cls-11{fill:#a93524;}</style><clipPath id="clip-path" transform="translate(0 0)"><rect class="cls-1" height="1000" width="1000"/></clipPath></defs><title/><g class="cls-2"><rect class="cls-3" height="1000" width="1000"/><path class="cls-4" d="M745.34,911.62c0,47-109.84,85-245.34,85s-245.34-38.07-245.34-85c0-33.32,55.29-62.17,135.81-76.12,33-5.72,70.17-8.93,109.53-8.93s76.56,3.21,109.53,8.93C690.05,849.45,745.34,878.3,745.34,911.62Z" transform="translate(0 0)"/><rect class="cls-4" height="178.65" rx="22.05" width="490.67" x="254.66" y="894.75"/><path class="cls-5" d="M615.67,854.57c0,32.7-51.79,59.22-115.67,59.22s-115.67-26.52-115.67-59.22a34.18,34.18,0,0,1,6.14-19.07c33-5.72,70.17-8.93,109.53-8.93s76.56,3.21,109.53,8.93A34.18,34.18,0,0,1,615.67,854.57Z" transform="translate(0 0)"/><ellipse class="cls-6" cx="500" cy="854.57" rx="78.49" ry="40.18"/><path class="cls-7" d="M795.69,307.26V490a9.62,9.62,0,0,1-.58,3.34v0c-1.88,5.55-8.38,9.63-16.11,9.63H221c-7.16,0-13.27-3.51-15.64-8.44a10.61,10.61,0,0,1-1.05-4.55V307.26q0-8.79.84-17.44C216.59,170.84,344.24,77.05,500,77.05a378.82,378.82,0,0,1,56,4.13,360.63,360.63,0,0,1,38.83,8,334.9,334.9,0,0,1,69.07,26.49q2.46,1.27,4.87,2.6a288.17,288.17,0,0,1,48,32.44c44.24,37.09,73,85.56,78.11,139.14Q795.68,298.46,795.69,307.26Z" transform="translate(0 0)"/><rect class="cls-6" height="89.01" width="124.9" x="437.55" y="765.56"/><path class="cls-8" d="M562.45,765.56v26.6c-19.6,4.82-40.33,9.62-62.13,14.69l-.32,0a1.55,1.55,0,0,1-.31,0c-21.81-5.07-42.54-9.87-62.14-14.69v-26.6Z" transform="translate(0 0)"/><path class="cls-7" d="M772.62,419.76c1.75-9.19,10.26-15.44,18.64-19.6a106.61,106.61,0,0,1,76.25-6.8c-29.26,9.18-51.73,37-54.58,67.51-.41,4.43-.72,9.47-4.17,12.28a15.14,15.14,0,0,1-5.39,2.43c-14.58,4.4-32.64,8-43.2-3-3.34-3.48-5.36-8-7.32-12.38C747,447,741.28,431,749.29,419c6.74-10.12,20.27-12.63,32.32-14.26" transform="translate(0 0)"/><path class="cls-6" d="M760.62,547.25a58.67,58.67,0,0,0-.62,8.59c0,17.45,7.48,32.36,18,38.33-9.16,137.41-113.37,160.2-278.2,198.54a1.73,1.73,0,0,1-.32,0,1.63,1.63,0,0,1-.31,0c-164.64-38.29-268.79-61.07-278.16-198.05,11-5.62,18.95-20.88,18.95-38.82s-7.95-33.27-19-38.86q.15-5.07.36-10.22c2.36-57.69,10.36-122.35,37.46-165.46,43.82-69.73,114.7-115.42,195.62-131.62a336.32,336.32,0,0,1,44.79-5.88l.31,0,.32,0A329.58,329.58,0,0,1,593,223.34c60.47,22.31,112.38,62.54,147.2,118,26.92,42.83,35,106.92,37.42,164.32v0l.09,2.22q.19,4.84.33,9.62h0a26.19,26.19,0,0,0-5.58,4.25C766.52,527.58,762.17,536.66,760.62,547.25Z" transform="translate(0 0)"/><path class="cls-6" d="M778.93,330.08V502.47a9,9,0,0,1-.55,3.15v0c-1.77,5.23-7.9,9.08-15.19,9.08H236.82c-6.75,0-12.52-3.31-14.75-8a9.9,9.9,0,0,1-1-4.29V330.08c0-5.53.28-11,.8-16.45C232.65,201.39,353.07,112.92,500,112.92a358,358,0,0,1,52.81,3.89,340.7,340.7,0,0,1,36.63,7.52,315.47,315.47,0,0,1,65.16,25c1.54.8,3.08,1.62,4.59,2.45a272,272,0,0,1,45.24,30.6c41.74,35,68.82,80.71,73.69,131.26C778.65,319.06,778.93,324.55,778.93,330.08Z" transform="translate(0 0)"/><path class="cls-6" d="M778.2,490.61v5.28l-1,.08q-3.48.25-7,.34A43.36,43.36,0,0,1,778.2,490.61Z" transform="translate(0 0)"/><ellipse class="cls-6" cx="204.19" cy="555.84" rx="48.07" ry="69.8"/><path class="cls-8" d="M221.05,594.66a20.52,20.52,0,0,1-9.36,2.3c-15.64,0-28.32-18.41-28.32-41.12s12.68-41.12,28.32-41.12A20.61,20.61,0,0,1,221,517c-.63,20.47-.63,39.82-.63,56.69Q220.35,584.59,221.05,594.66Z" transform="translate(0 0)"/><path class="cls-7" d="M644.64,114.29a248.19,248.19,0,0,1-29.07-47.12c-.9-1.91-1.53-4.7.33-5.71,1.1-.6,2.44-.13,3.58.37,22,9.78,36.22,34.54,33.66,58.44" transform="translate(0 0)"/><path class="cls-7" d="M652.24,118.4c10-16.83,30-27.13,49.5-25.44a130.51,130.51,0,0,1-46.52,26" transform="translate(0 0)"/><ellipse class="cls-6" cx="795.81" cy="555.84" rx="48.07" ry="69.8"/><path class="cls-8" d="M816.63,555.84c0,22.71-12.68,41.12-28.32,41.12A20.76,20.76,0,0,1,778,594.17q.66-9.85.66-20.5c0-16,0-34.12-.53-53.36,0-.94,0-1.88-.09-2.82h0a20.82,20.82,0,0,1,10.23-2.76C804,514.72,816.63,533.13,816.63,555.84Z" transform="translate(0 0)"/><path class="cls-7" d="M219.62,473.58a180.51,180.51,0,0,1-6.26,65.8c.94.39,1.81-.67,2.29-1.57a492.76,492.76,0,0,0,28.15-63.66,2.55,2.55,0,0,0-1.77-4,57.1,57.1,0,0,0-11.36-2.92,5,5,0,0,0-3.32.29,5.23,5.23,0,0,0-1.89,3.21l-4.4,15.06" transform="translate(0 0)"/><path class="cls-7" d="M780.38,473.58a180.51,180.51,0,0,0,6.26,65.8c-.94.39-1.81-.67-2.29-1.57a492.76,492.76,0,0,1-28.15-63.66,2.55,2.55,0,0,1,1.77-4,57.1,57.1,0,0,1,11.36-2.92,5,5,0,0,1,3.32.29,5.23,5.23,0,0,1,1.89,3.21l4.4,15.06" transform="translate(0 0)"/><line class="cls-1" x1="677.78" x2="677.78" y1="1079.99" y2="1066.81"/><ellipse class="cls-8" cx="500" cy="670.64" rx="25.68" ry="11.73"/><ellipse class="cls-9" cx="352.87" cy="562.11" rx="95.81" ry="71.5"/><path class="cls-10" d="M352.87,490.61c-49.64,0-90.52,31.29-95.81,71.5,5.29,40.22,46.17,71.5,95.81,71.5s90.53-31.28,95.82-71.5C443.4,521.9,402.52,490.61,352.87,490.61Zm0,134.69a100.41,100.41,0,0,1-28.07-3.95c-30.42-8.84-53-31.67-56.6-59.24,3.62-27.57,26.18-50.39,56.6-59.24a100.41,100.41,0,0,1,28.07-3.95c43.88,0,80,27.65,84.68,63.19C432.88,597.65,396.75,625.3,352.87,625.3Z" transform="translate(0 0)"/><path class="cls-5" d="M437.55,562.11c-4.67,35.54-40.8,63.19-84.68,63.19a100.41,100.41,0,0,1-28.07-3.95c-20.82-13.11-34.41-34.76-34.41-59.24S304,516,324.8,502.87a100.41,100.41,0,0,1,28.07-3.95C396.75,498.92,432.88,526.57,437.55,562.11Z" transform="translate(0 0)"/><circle class="cls-9" cx="336.28" cy="549.73" r="27.69"/><path class="cls-10" d="M283.67,608.14l-6,5a3.69,3.69,0,0,0-1,1.61,4.52,4.52,0,0,0,0,3.85,3.69,3.69,0,0,0,1,1.61,5,5,0,0,0,3.54,1.46l1.32-.17a5,5,0,0,0,2.21-1.29l6-5a3.77,3.77,0,0,0,1-1.6,5.13,5.13,0,0,0-1-5.47,5,5,0,0,0-3.53-1.46l-1.33.18a5,5,0,0,0-2.21,1.28Z" transform="translate(0 0)"/><path class="cls-10" d="M304.65,622.18l-3.43,7a4.85,4.85,0,0,0,.39,5.55A3.81,3.81,0,0,0,303,636a5,5,0,0,0,3.85.5,4.93,4.93,0,0,0,3-2.29l3.43-7a4.85,4.85,0,0,0-.39-5.55,3.81,3.81,0,0,0-1.41-1.29,5,5,0,0,0-3.85-.5,4.93,4.93,0,0,0-3,2.29Z" transform="translate(0 0)"/><path class="cls-10" d="M328.09,630.23l-.3,7.76a5,5,0,0,0,5,5,5.06,5.06,0,0,0,3.53-1.46,5.36,5.36,0,0,0,1.47-3.54l.3-7.76a5.13,5.13,0,0,0-1.47-3.54,5,5,0,0,0-7.07,0,5.33,5.33,0,0,0-1.46,3.54Z" transform="translate(0 0)"/><ellipse class="cls-9" cx="647.13" cy="562.11" rx="95.81" ry="71.5"/><path class="cls-5" d="M731.8,562.11c-4.67,35.54-40.8,63.19-84.67,63.19a100.43,100.43,0,0,1-28.08-3.95c-20.82-13.11-34.41-34.76-34.41-59.24s13.59-46.12,34.41-59.24a100.43,100.43,0,0,1,28.08-3.95C691,498.92,727.13,526.57,731.8,562.11Z" transform="translate(0 0)"/><circle class="cls-9" cx="630.53" cy="549.73" r="27.69"/><path class="cls-10" d="M551.31,562.11c5.29,40.22,46.17,71.5,95.82,71.5s90.52-31.28,95.81-71.5c-5.29-40.21-46.17-71.5-95.81-71.5S556.6,521.9,551.31,562.11Zm11.14,0c4.67-35.54,40.8-63.19,84.68-63.19a100.41,100.41,0,0,1,28.07,3.95c30.42,8.85,53,31.67,56.6,59.24-3.62,27.57-26.18,50.4-56.6,59.24a100.41,100.41,0,0,1-28.07,3.95C603.25,625.3,567.12,597.65,562.45,562.11Z" transform="translate(0 0)"/><path class="cls-10" d="M709.26,615.21l6,5a3.69,3.69,0,0,0,1.61,1,4.52,4.52,0,0,0,3.85,0,3.69,3.69,0,0,0,1.61-1,5,5,0,0,0,1.46-3.54l-.17-1.32a5,5,0,0,0-1.29-2.21l-6-5a5.58,5.58,0,0,0-3.54-1.46,3.74,3.74,0,0,0-1.92.43,3.78,3.78,0,0,0-1.61,1,5,5,0,0,0-1.47,3.54L708,613a5,5,0,0,0,1.29,2.2Z" transform="translate(0 0)"/><path class="cls-10" d="M686.71,627.23l3.43,7a3.86,3.86,0,0,0,1.29,1.4,3.72,3.72,0,0,0,1.7.89,3.78,3.78,0,0,0,2,.09A3.74,3.74,0,0,0,697,636a5,5,0,0,0,2.3-3l.18-1.33a5,5,0,0,0-.68-2.52l-3.43-7a3.86,3.86,0,0,0-1.29-1.4,5.18,5.18,0,0,0-5.55-.39,5,5,0,0,0-2.3,3l-.18,1.33a5,5,0,0,0,.68,2.52Z" transform="translate(0 0)"/><path class="cls-10" d="M661.91,630.23l.3,7.76a5.22,5.22,0,0,0,1.47,3.54,5,5,0,0,0,8.53-3.54l-.3-7.76a5.23,5.23,0,0,0-1.46-3.54,5,5,0,0,0-8.54,3.54Z" transform="translate(0 0)"/><path class="cls-10" d="M541.76,452.94q2.84-1.35,5.73-2.57l-2.39,1c15.61-6.55,32.19-10.3,48.93-12.56l-2.66.36c19.75-2.63,39.72-3.37,59.62-3.91q31.85-.87,63.71-.06,18,.46,36,1.46c5.23.29,10.23-4.8,10-10a10.22,10.22,0,0,0-10-10q-44.47-2.46-89.06-1.65c-28.42.53-57.19,1.3-85.21,6.45a180.42,180.42,0,0,0-44.82,14.21c-2.15,1-4,3.76-4.59,6a10.22,10.22,0,0,0,1,7.71,10.12,10.12,0,0,0,6,4.59,11.29,11.29,0,0,0,7.71-1Z" transform="translate(0 0)"/><path class="cls-10" d="M467.4,435.67a176.72,176.72,0,0,0-40.19-13.31,320.74,320.74,0,0,0-42-5.43c-28.88-2.05-58-2.41-86.9-2q-25,.36-50,1.74a10.58,10.58,0,0,0-7.07,2.93,10.15,10.15,0,0,0-2.93,7.07,10,10,0,0,0,10,10q31.94-1.77,63.92-1.85c20.95-.05,41.91.39,62.82,1.5,10.91.57,21.81,1.42,32.64,2.86l-2.66-.36c16.74,2.26,33.32,6,48.93,12.56l-2.39-1q2.9,1.22,5.73,2.57a10.72,10.72,0,0,0,7.71,1,10.2,10.2,0,0,0,6-4.59,10.09,10.09,0,0,0,1-7.71c-.76-2.35-2.27-4.87-4.59-6Z" transform="translate(0 0)"/><path class="cls-11" d="M419.51,708.27c7.17,6.57,16.5,8.84,25.92,9.79,10,1,20.16,1.15,30.21,1.52,21.62.8,43.28,1.15,64.91.32,12.16-.47,24.31-1.31,36.4-2.64,2.59-.29,5.13-2.1,5-5-.11-2.46-2.21-5.31-5-5a576,576,0,0,1-63.53,3.12c-20.95,0-42-.66-62.86-1.92-2.37-.14-4.74-.34-7.1-.62-1-.12,0,0,.16,0a5.25,5.25,0,0,1-1.17-.17l-1.74-.3c-1.15-.22-2.29-.47-3.42-.77s-2.23-.63-3.31-1c-.26-.09-2-.7-.76-.26a15.51,15.51,0,0,1-1.55-.72,27.7,27.7,0,0,1-2.94-1.7c-.22-.14-.42-.29-.63-.43-.46-.33-.6-.37-.06,0a12.45,12.45,0,0,1-1.46-1.26c-1.93-1.77-5.19-2.05-7.07,0s-2.06,5.18,0,7.07Z" transform="translate(0 0)"/><path class="cls-7" d="M778.46,307.89v9H630.74a696,696,0,0,1-36.24-60.15,368,368,0,0,1-25.8,60.15H220.6v-9q0-8.31.79-16.46C232.18,179.2,352.59,90.72,499.53,90.72a359.57,359.57,0,0,1,52.82,3.89A341.22,341.22,0,0,1,589,102.14a315.36,315.36,0,0,1,65.15,25q2.32,1.2,4.6,2.46A271.71,271.71,0,0,1,704,160.17a228.4,228.4,0,0,1,41.13,44.67,199,199,0,0,1,12.2,20,177.48,177.48,0,0,1,20.35,66.62C778.18,296.86,778.46,302.35,778.46,307.89Z" transform="translate(0 0)"/><path class="cls-7" d="M287.62,252.13,184.77,460.78a4.32,4.32,0,0,0-.63,3.26,4.21,4.21,0,0,0,2.46,2c32.86,14.94,72,10.56,105.06-3.88s61.24-38,88.31-61.88c45.9-40.48,90.87-83.71,120.68-137.17,4.74-8.51,9.19-18.49,6-27.7-2.67-7.74-10-12.74-17.14-16.8C436.2,188.18,370.57,180,311.41,196.54c-16,4.47-31.87,10.84-44.48,21.68s-21.67,26.7-21.27,43.33" transform="translate(0 0)"/><path class="cls-7" d="M599.63,239.63q-2.34,8.63-5.13,17.1a368,368,0,0,1-25.8,60.15C527.28,394,459,456.89,377.84,489.94c11.17-46.16,31.53-89.48,48.51-133.83,4.93-12.88,9.6-26,13.66-39.23,9.95-32.37,16.32-65.71,14.28-99.35l107.57,30.08c11.34,3.16,25.35,10.17,23.59,21.81l7.46-15.68Z" transform="translate(0 0)"/><path class="cls-7" d="M563.82,177.7c3.18,76.22,34.16,149.1,75.81,213,13.6,20.87,28.52,41.14,47.14,57.68,42,37.27,98.54,52.38,152.9,66.33-40.78-80.71-48-173.53-57.62-263.45-1.19-11.15-2.94-23.34-11.29-30.82-5.28-4.73-12.39-6.76-19.22-8.64L686.42,193.9c-22.79-6.27-48.45-12.24-69-.53-14.49,8.27-24.16,24.37-40.05,29.45" transform="translate(0 0)"/><path class="cls-7" d="M210.66,256.8c-35,67.53-109.57,119.29-176.59,157.85A491.57,491.57,0,0,0,170.7,409,307.33,307.33,0,0,1,63.36,477.35C97,490.45,134,492,170.17,493.46c3.08.12,69.88-13.36,72.69-14.6S217.31,468,219.15,465.69c12.92-16.38-11.88-14.73-3.56-33.71,19.27-44,38.79-89,42.47-136.6-24.1-4.66,4.57-35.06-19.59-30.74" transform="translate(0 0)"/></g></svg>