<?xml version="1.0" ?><!DOCTYPE svg  PUBLIC '-//W3C//DTD SVG 1.1//EN'  'http://www.w3.org/Graphics/SVG/1.1/DTD/svg11.dtd'><svg enable-background="new 0 0 64 64" height="64px" id="Layer_1" version="1.1" viewBox="0 0 64 64" width="64px" xml:space="preserve" xmlns="http://www.w3.org/2000/svg" xmlns:xlink="http://www.w3.org/1999/xlink"><g><path fill="#99E2EE" d="M49.109,13.836H34.903v0.005H10.964v9.216c0,9.909,8.032,17.941,17.941,17.941c7.284,0,13.541-4.349,16.352-10.585h3.853   c4.57,0,8.289-3.718,8.289-8.289S53.68,13.836,49.109,13.836z M49.109,26.051h-2.533c0.164-0.976,0.27-1.971,0.27-2.994v-4.859   h2.263c2.165,0,3.926,1.761,3.926,3.926S51.274,26.051,49.109,26.051z"/><path fill="#99E2EE"  d="M10.055,48.675c0.502,0.823,1.69,1.49,2.654,1.49h32.392c0.964,0,2.152-0.667,2.654-1.49l3.454-5.659H6.602L10.055,48.675z   "/></g></svg>